<?xml version="1.0" encoding="UTF-8"?>
<svg id="katman_1" data-name="katman 1" xmlns="http://www.w3.org/2000/svg" viewBox="0 0 467.86 346.32">
  <defs>
    <style>
      .cls-1 {
        fill: #203c76;
      }
    </style>
  </defs>
  <path class="cls-1" d="M91.67,90.38v67.4h-11.05v-67.4c0-19.94-11.49-32.94-31.86-32.94s-37.92,13.87-37.92,43.13v57.21H0V6.08h10.84v63.93c8.24-16.04,22.1-22.97,38.79-22.97,25.79,0,42.04,17.12,42.04,43.34Z"/>
  <path class="cls-1" d="M228.62,49.43v108.36h-11.05v-24.49c-9.1,16.25-25.79,26.87-46.59,26.87-30.77,0-56.13-24.49-56.13-56.56s25.35-56.56,56.13-56.56c20.8,0,37.49,10.62,46.59,26.87v-24.49h11.05ZM217.57,103.6c0-25.79-19.94-46.16-45.73-46.16s-45.94,20.37-45.94,46.16,20.15,46.16,45.94,46.16,45.73-20.37,45.73-46.16Z"/>
  <path class="cls-1" d="M368.39,6.08v151.7h-10.84v-25.14c-8.88,16.69-25.57,27.52-46.59,27.52-30.99,0-56.13-24.49-56.13-56.56s25.14-56.56,56.13-56.56c21.02,0,37.71,10.84,46.59,27.52V6.08h10.84ZM357.56,103.6c0-25.79-20.16-46.16-45.94-46.16s-45.94,20.37-45.94,46.16,20.15,46.16,45.94,46.16,45.94-20.37,45.94-46.16Z"/>
  <path class="cls-1" d="M67.29,175.18v69.48h-20.84v-6.53c-3.75,5.14-10.7,8.48-19.87,8.48-14.03,0-25.98-10-25.98-28.76v-42.66h20.84v39.6c0,8.62,5.42,12.65,12.09,12.65,7.64,0,12.92-4.45,12.92-14.31v-37.93h20.84Z"/>
  <path class="cls-1" d="M186.78,201.99v42.66h-20.84v-40.85c0-6.95-3.33-11.39-10-11.39s-10.84,4.86-10.84,13.06v39.18h-20.84v-40.85c0-6.95-3.33-11.39-10-11.39s-10.84,4.86-10.84,13.06v39.18h-20.84v-69.48h20.84v6.39c3.2-4.72,9.31-8.34,18.62-8.34,8.2,0,14.31,3.33,18.2,9.17,3.89-5.56,10.28-9.17,20.15-9.17,15.98,0,26.4,11.39,26.4,28.76Z"/>
  <path class="cls-1" d="M242.77,173.79v23.62c-8.61-1.39-20.84,2.08-20.84,15.84v31.4h-20.84v-69.48h20.84v12.37c2.78-9.31,12.09-13.76,20.84-13.76Z"/>
  <path class="cls-1" d="M285.7,227.98c5.7,0,10.56-2.22,13.34-5.28l16.67,9.59c-6.81,9.45-17.09,14.31-30.29,14.31-23.76,0-38.49-15.98-38.49-36.68s15.01-36.68,36.96-36.68c20.29,0,35.29,15.7,35.29,36.68,0,2.92-.28,5.7-.83,8.34h-49.33c2.64,7.23,9.03,9.73,16.67,9.73ZM298.48,202.69c-2.22-8.06-8.48-10.98-14.73-10.98-7.92,0-13.2,3.89-15.15,10.98h29.87Z"/>
  <path class="cls-1" d="M394.22,175.18l-23.76,67.39c-7.78,22.09-20.15,30.85-39.6,29.87v-19.45c9.73,0,14.31-3.06,17.37-11.53l-27.65-66.28h22.93l15.42,42.52,13.06-42.52h22.23Z"/>
  <path class="cls-1" d="M434.37,227.98c5.7,0,10.56-2.22,13.34-5.28l16.67,9.59c-6.81,9.45-17.09,14.31-30.29,14.31-23.76,0-38.49-15.98-38.49-36.68s15.01-36.68,36.96-36.68c20.29,0,35.29,15.7,35.29,36.68,0,2.92-.28,5.7-.83,8.34h-49.33c2.64,7.23,9.03,9.73,16.67,9.73ZM447.16,202.69c-2.22-8.06-8.48-10.98-14.73-10.98-7.92,0-13.2,3.89-15.15,10.98h29.87Z"/>
  <path class="cls-1" d="M47.24,286.03v40.36c0,12.72-9.41,19.93-21.12,19.93-9.92,0-16.96-3.99-20.01-10.18l3.73-2.12c2.2,4.5,6.95,8.23,16.28,8.23,10.6,0,16.88-6.19,16.88-15.86v-7.8c-3.48,6.53-10.01,10.77-18.23,10.77-12.13,0-21.96-9.58-21.96-22.13s9.84-22.13,21.96-22.13c8.23,0,14.76,4.24,18.23,10.77v-9.84h4.24ZM42.99,307.23c0-10.09-7.89-18.06-17.98-18.06s-17.98,7.97-17.98,18.06,7.89,18.06,17.98,18.06,17.98-7.97,17.98-18.06Z"/>
  <path class="cls-1" d="M58.43,275.85c0-2.2,1.7-3.99,3.99-3.99s3.9,1.78,3.9,3.99-1.7,3.99-3.9,3.99-3.99-1.78-3.99-3.99ZM60.29,286.03h4.24v42.4h-4.24v-42.4Z"/>
  <path class="cls-1" d="M119.23,269.07v59.36h-4.24v-9.84c-3.48,6.53-10.01,10.77-18.23,10.77-12.13,0-21.96-9.58-21.96-22.13s9.84-22.13,21.96-22.13c8.23,0,14.76,4.24,18.23,10.77v-26.8h4.24ZM114.99,307.23c0-10.09-7.89-18.06-17.98-18.06s-17.98,7.97-17.98,18.06,7.89,18.06,17.98,18.06,17.98-7.97,17.98-18.06Z"/>
  <path class="cls-1" d="M172.31,307.4c0,.68-.08,1.36-.08,2.04h-38.41c1.02,9.58,8.31,15.86,17.98,15.86,6.95,0,12.21-3.22,14.67-7.72l3.73,2.2c-3.48,5.77-10.09,9.58-18.49,9.58-13.06,0-22.3-9.33-22.3-22.13s8.99-22.13,21.96-22.13,20.95,10.69,20.95,22.3ZM133.81,305.28h34.09c-.93-10.35-8.23-16.11-16.54-16.11-9.67,0-16.71,6.7-17.55,16.11Z"/>
  <path class="cls-1" d="M182.23,266.52h4.24v61.9h-4.24v-61.9Z"/>
  <path class="cls-1" d="M197.66,275.85c0-2.2,1.7-3.99,3.99-3.99s3.9,1.78,3.9,3.99-1.7,3.99-3.9,3.99-3.99-1.78-3.99-3.99ZM199.52,286.03h4.24v42.4h-4.24v-42.4Z"/>
  <path class="cls-1" d="M277.54,301.55v26.88h-4.24v-26.88c0-8.06-4.66-12.38-11.28-12.38-7.12,0-12.72,4.75-12.72,15.6v23.66h-4.24v-26.88c0-8.06-4.32-12.38-10.85-12.38-6.95,0-13.14,4.75-13.14,15.6v23.66h-4.24v-42.4h4.24v7.29c3.14-5.85,8.23-8.23,13.65-8.23,6.19,0,11.02,3.05,13.23,8.65,3.05-5.94,8.48-8.65,14.16-8.65,8.99,0,15.43,5.85,15.43,16.45Z"/>
  <path class="cls-1" d="M288.22,325.46c0-2.12,1.61-3.82,3.82-3.82s3.82,1.7,3.82,3.82-1.7,3.82-3.82,3.82-3.82-1.7-3.82-3.82Z"/>
  <path class="cls-1" d="M301.28,307.23c0-12.55,9.5-22.13,22.3-22.13,8.31,0,15.43,4.24,18.49,10.85l-3.48,2.04c-2.46-5.34-8.23-8.82-15.01-8.82-10.26,0-17.98,7.97-17.98,18.06s7.72,18.06,17.98,18.06c6.87,0,12.47-3.56,15.26-8.82l3.56,2.12c-3.39,6.53-10.52,10.77-18.83,10.77-12.81,0-22.3-9.58-22.3-22.13Z"/>
  <path class="cls-1" d="M348.43,307.23c0-12.55,9.92-22.13,22.3-22.13s22.22,9.58,22.22,22.13-9.92,22.13-22.22,22.13-22.3-9.58-22.3-22.13ZM388.62,307.23c0-10.09-7.8-18.06-17.89-18.06s-17.98,7.97-17.98,18.06,7.89,18.06,17.98,18.06,17.89-7.97,17.89-18.06Z"/>
  <path class="cls-1" d="M463.84,301.55v26.88h-4.24v-26.88c0-8.06-4.67-12.38-11.28-12.38-7.12,0-12.72,4.75-12.72,15.6v23.66h-4.24v-26.88c0-8.06-4.32-12.38-10.85-12.38-6.95,0-13.14,4.75-13.14,15.6v23.66h-4.24v-42.4h4.24v7.29c3.14-5.85,8.22-8.23,13.65-8.23,6.19,0,11.02,3.05,13.23,8.65,3.05-5.94,8.48-8.65,14.16-8.65,8.99,0,15.43,5.85,15.43,16.45Z"/>
  <path class="cls-1" d="M453.08,48.56c-1.87-11.56-11.71-20.43-23.71-20.77v-3.5c.46.05.93.09,1.4.09,5.51,0,10.16-3.66,11.67-8.68-1.82,3.39-5.4,5.7-9.52,5.7-5.96,0-10.8-4.84-10.8-10.8,0-5.24,3.73-9.61,8.69-10.59-.01,0-.02,0-.03,0-6.73,0-12.19,5.46-12.19,12.19,0,5.74,3.98,10.55,9.33,11.84v3.77c-12,.35-21.84,9.22-23.71,20.77-5.9,3.18-9.9,9.41-9.9,16.58v92.78h68.69v-92.78c0-7.17-4.01-13.4-9.9-16.58ZM428.64,34.4c7.84,0,14.51,5.01,17.04,11.99-.51-.04-1.02-.08-1.53-.08-6.44,0-12.11,3.23-15.51,8.16-3.4-4.93-9.07-8.16-15.51-8.16-.52,0-1.03.04-1.53.08,2.53-6.98,9.2-11.99,17.04-11.99ZM414.79,131.27v20.01h-13.85v-86.13c0-3.01,1.1-5.75,2.91-7.88,1.69-1.99,4.01-3.43,6.65-4.01.85-.19,1.73-.29,2.63-.29,6.72,0,12.19,5.47,12.19,12.19v52.69c-6.04,1.49-10.52,6.93-10.52,13.43ZM435.84,151.28h-14.4v-20.01c0-2.77,1.58-5.14,3.88-6.35,1-.52,2.12-.85,3.33-.85s2.32.33,3.32.85c2.29,1.21,3.88,3.58,3.88,6.35v20.01ZM456.34,151.28h-13.85v-20.01c0-6.5-4.48-11.94-10.52-13.43v-52.69c0-6.72,5.47-12.19,12.19-12.19.9,0,1.78.11,2.63.29,2.64.58,4.95,2.02,6.65,4.01,1.81,2.13,2.91,4.88,2.91,7.88v86.13Z"/>
</svg>