<svg xmlns="http://www.w3.org/2000/svg" viewBox="76 62 1332 1332"><mask id="m" maskUnits="userSpaceOnUse" x="76" y="62" width="1332" height="1332"><rect x="76" y="62" width="1332" height="1332" fill="#000"/><path fill="#fff" d="M740.541 134.207c13.903-.425 16.2 8.822 22.347 19.48 31.798 55.133 73.818 104.385 127.15 139.822 60.307 40.074 131.267 65.459 202.867 75.953 14.438 2.116 31.456 3.317 45.118 7.941a80.3 80.3 0 0 1 28.703 17.179c17.118 15.808 26.012 36.963 26.273 59.972.394 34.752.306 69.675.326 104.418l-.05 209.179-.03 114.815c.042 19.209.33 38.382.083 57.769-.548 43.113-21.262 84.24-50.018 115.536-15.609 16.988-34.008 28.822-52.725 41.802l-42.125 29.493-144.208 102.12-85.932 61.373c-4.495 3.187-9.056 6.847-13.331 10.346-18.303 14.984-38.569 20.683-61.848 21.487-37.547-1.165-50.178-11.618-79.787-33.034l-42.37-30.65-137.37-97.98c-13.162-9.429-28.316-18.458-41.078-28.262-31.08-23.874-67.953-44.64-96.8-70.792-19.3-19.44-37.126-47.01-45.761-72.901-12.01-36.011-8.458-77.666-8.961-115.313q-.866-100.796-.5-201.596l-.07-147.26c-.032-24.488-.69-49.663.13-74.126.36-10.693 4.418-24.378 9.185-33.883 10.432-20.798 30.052-34.43 52.04-40.863 13.691-4.251 23.125-4.65 36.79-6.568a696 696 0 0 0 34.332-5.898c72.748-14.815 140.314-45.634 198.83-91.451 47.114-36.887 80.93-81.267 110.19-133.052 1.32-2.336 6.172-4.282 8.6-5.056"/><path fill="#000" d="M741.792 174.365c2.54 2.078 16.027 24.116 19.552 29.11a453 453 0 0 0 16.423 21.5c73.349 91.9 188.93 153.463 304.523 170.718 21.575 3.221 48.883 3.853 65.853 18.545a48.7 48.7 0 0 1 16.86 33.845c.838 12.465.57 29.287.601 41.929l.082 68.018.043 211.286.04 121.813c.012 19.343 1.086 49.736-1.61 67.77-3.964 26.502-21.007 58.528-38.508 78.576-12.838 14.703-24.232 20.926-40.172 31.947l-37.587 26.186-113.203 80.41-102.185 72.615c-16.883 12.009-34.594 25.556-52.089 36.454-12.357 7.7-23.983 9.395-38.268 10.33-36.146-2.497-45.137-15.083-73.224-34.917a7423 7423 0 0 1-92.78-66.09l-142.871-100.917c-21.187-15-50.362-33.726-68.6-50.767-19.941-18.632-36.2-50.217-43.497-76.196-4.743-16.885-3.22-44.727-3.139-63.023l-.03-55.6-.03-226.62.034-113.733c-.036-17.787-.64-35.879-.293-53.637.151-7.666 2.85-16.795 6.541-23.574 17.023-31.249 52.962-30.824 84.315-35.932a480 480 0 0 0 52.017-11.412c74.028-21.213 148.008-59.458 204.732-111.853 27.186-25.113 58.66-64.69 76.47-96.78"/><path fill="#fff" d="M916.951 553.819c45.226-4.423 71.106 53.933 42.581 86.61-10.908 12.496-21.634 25.229-32.547 37.747l-62.322 72.358-81.913 95.358-26.222 30.449c-3.43 3.973-13.338 15.859-16.821 18.597-15.763 12.244-31.16 16.442-50.644 15.729-31.752-1.163-45.39-21.858-65.496-43.38a3578 3578 0 0 1-44.79-48.045c-12.992-14.104-26.354-27.831-39.243-42.014-7.666-8.437-10.823-13.548-12.257-24.948-5.577-44.373 41.03-76.683 80.234-54.717 7.861 4.406 17.577 15.403 24.115 22.047l40.596 41.686c5.504 5.675 16.592 17.63 22.097 22.294l1.136.948c17.589-17.945 39.947-45.243 56.549-64.6a9671 9671 0 0 1 94.341-108.386c5.649-6.319 11.225-13.038 16.756-19.462 16.177-18.789 27.396-35.514 53.85-38.271"/><path fill="#000" d="M913.17 581.935c8.221-.887 17.447.672 23.036 7 18.098 20.487-.273 36.765-12.331 50.753l-28.815 33.206-83.946 97-62.127 72.518c-9.105 10.508-18.395 22.25-28.175 31.89-5.842 5.759-20.27 10.109-28.435 9.602-5.69-.352-15.327-2.881-20.048-6.41-13.479-10.073-24.996-26.322-36.84-38.524-16.76-17.266-33.273-34.767-49.81-52.18-6.232-6.57-23.76-24.8-27.609-32.27a24.3 24.3 0 0 1-1.376-18.56c6.58-19.753 28.506-23.222 43.441-9.09 25.878 24.49 49.61 50.742 75.197 75.509 4.88 4.724 8.867 11.78 15.392 13.942 4.87 1.649 11.627 1.354 16.024-2.025 12.636-12.763 24.879-28.542 36.523-42.088l103.957-120.005c13.55-15.567 50.529-62.25 65.941-70.268"/></mask><rect x="76" y="62" width="1332" height="1332" fill="#1d428a" mask="url(#m)"/></svg>