<svg xmlns="http://www.w3.org/2000/svg" viewBox="0 0 1024 1024"><path d="M 217.459 48.915 C 210.969 49.981, 206.083 53.625, 203.392 59.404 L 201.020 64.500 201.010 500.750 L 201 937 136.750 937.022 C 74.313 937.043, 72.374 937.101, 68.018 939.077 C 60.066 942.684, 55.983 948.516, 56.022 956.210 C 56.066 964.792, 60.755 971.233, 69.308 974.461 C 73.111 975.896, 114.325 976.017, 514 975.771 L 954.500 975.500 959.153 972.765 C 962.608 970.734, 964.475 968.687, 966.403 964.818 C 969.706 958.191, 969.674 954.689, 966.250 947.929 C 963.952 943.392, 962.608 942.048, 958.071 939.750 L 952.641 937 887.821 937 L 823 937 822.984 499.750 L 822.967 62.500 820.718 58.530 C 818.185 54.056, 813.483 50.506, 808.118 49.016 C 804.048 47.885, 224.325 47.786, 217.459 48.915 M 240 512 L 240 937 313.565 937 L 387.129 937 386.875 869.750 C 386.595 795.650, 386.777 792.655, 392.958 769.503 C 399.464 745.138, 413.540 717.108, 429.265 697.202 C 446.631 675.219, 473.711 652.603, 496.652 640.923 C 513.251 632.472, 517.910 633.479, 544.880 651.349 C 594.485 684.219, 624.193 728.857, 635.157 787 C 637.222 797.948, 637.345 801.823, 637.719 867.750 L 638.112 937 711.722 937 L 785.332 937 784.666 647.334 C 784.300 488.017, 784 296.767, 784 222.334 L 784 87 512 87 L 240 87 240 512 M 290.500 119.910 C 283.225 121.218, 278.260 124.554, 275.509 129.983 L 273 134.934 273 185.287 L 273 235.641 275.750 241.071 C 277.832 245.180, 279.594 247.108, 283 249 L 287.500 251.500 339 251.746 L 390.500 251.991 395.500 249.244 C 399.354 247.127, 401.188 245.237, 403.500 240.999 L 406.500 235.500 406.341 185.680 L 406.181 135.859 403.341 130.180 C 401.146 125.791, 399.477 123.932, 396 122 L 391.500 119.500 343 119.345 C 316.325 119.260, 292.700 119.514, 290.500 119.910 M 463 119.919 C 455.249 121.100, 451.083 124.054, 447.371 131 C 445.613 134.288, 445.500 137.590, 445.500 185.500 C 445.500 235.728, 445.532 236.561, 447.644 240.500 C 450.328 245.509, 452.364 247.358, 458.018 249.923 C 462.335 251.881, 464.361 251.956, 513 251.955 L 563.500 251.953 568.500 249.225 C 572.394 247.101, 574.152 245.281, 576.449 240.999 L 579.398 235.500 579.377 185.979 L 579.357 136.459 576.760 130.788 C 574.536 125.930, 573.400 124.714, 568.832 122.308 L 563.500 119.500 515.500 119.366 C 489.100 119.293, 465.475 119.541, 463 119.919 M 638.500 119.847 C 630.349 120.748, 624.198 124.323, 621.013 130.013 L 618.500 134.500 618.523 185 L 618.545 235.500 621.523 240.987 C 623.707 245.012, 625.699 247.143, 629 248.987 L 633.500 251.500 685 251.746 L 736.500 251.991 741.500 249.246 C 745.475 247.063, 747.071 245.373, 749.284 241.002 L 752.068 235.504 751.784 184.502 L 751.500 133.500 749.113 129.335 C 747.503 126.524, 745.064 124.261, 741.613 122.377 L 736.500 119.585 690.500 119.385 C 665.200 119.275, 641.800 119.483, 638.500 119.847 M 312 185.500 L 312 213 339.500 213 L 367 213 367 185.500 L 367 158 339.500 158 L 312 158 312 185.500 M 485 185.500 L 485 213 512.500 213 L 540 213 540 185.500 L 540 158 512.500 158 L 485 158 485 185.500 M 658 185.500 L 658 213 685.500 213 L 713 213 713 185.500 L 713 158 685.500 158 L 658 158 658 185.500 M 284.500 292.345 C 278.733 295.080, 276.684 297.119, 274.538 302.254 C 273.223 305.403, 273.001 313.215, 273.010 356.218 L 273.020 406.500 275.439 411.698 C 277.449 416.014, 278.761 417.370, 283.180 419.698 L 288.500 422.500 339.500 422.760 L 390.500 423.020 395.741 419.995 C 399.787 417.659, 401.598 415.777, 403.687 411.735 L 406.392 406.500 406.446 356.500 C 406.496 310.550, 406.355 306.179, 404.712 302.537 C 402.400 297.411, 400.410 295.275, 395.500 292.644 C 391.581 290.543, 390.473 290.495, 340.500 290.237 L 289.500 289.974 284.500 292.345 M 457.500 292.144 C 452.074 294.984, 450.163 296.798, 447.644 301.500 C 445.533 305.439, 445.500 306.273, 445.511 356 L 445.522 406.500 448.511 411.961 C 450.918 416.358, 452.545 417.965, 456.864 420.211 L 462.228 423 512.154 423 C 560.973 423, 562.173 422.953, 566.290 420.887 C 571.841 418.101, 574.762 415.345, 577.199 410.590 C 579.121 406.843, 579.210 404.594, 579.352 356.590 L 579.500 306.500 576.500 301.013 C 574.308 297.004, 572.289 294.850, 569 293.013 L 564.500 290.500 513 290.275 C 462.450 290.055, 461.426 290.089, 457.500 292.144 M 629.101 292.871 C 625.006 295.005, 623.144 296.750, 621.396 300.093 L 619.090 304.500 619.069 356 L 619.047 407.500 621.773 412.483 C 623.689 415.984, 625.839 418.215, 629 419.983 L 633.500 422.500 684.251 422.808 L 735.001 423.117 740.849 420 C 745.085 417.742, 747.360 415.726, 749.099 412.691 L 751.500 408.500 751.500 356.500 L 751.500 304.500 748.987 300.013 C 747.334 297.059, 744.941 294.666, 741.987 293.013 L 737.500 290.500 686 290.278 L 634.500 290.057 629.101 292.871 M 312 356.500 L 312 384 339.500 384 L 367 384 367 356.500 L 367 329 339.500 329 L 312 329 312 356.500 M 485 356.500 L 485 384 512.500 384 L 540 384 540 356.500 L 540 329 512.500 329 L 485 329 485 356.500 M 658 356.500 L 658 384 685.500 384 L 713 384 713 356.500 L 713 329 685.500 329 L 658 329 658 356.500 M 289.500 460.918 C 282.115 462.774, 277.916 465.941, 275.318 471.617 L 272.804 477.108 272.653 526.804 L 272.502 576.500 275.501 581.987 C 277.693 585.997, 279.711 588.150, 283 589.987 L 287.500 592.500 338.684 592.800 L 389.869 593.100 394.684 590.658 C 400.384 587.768, 402.321 585.792, 404.675 580.463 C 406.266 576.864, 406.430 571.909, 406.463 526.500 L 406.500 476.500 403.500 471 C 401.100 466.600, 399.500 465, 395.500 463 L 390.500 460.500 341.500 460.332 C 314.550 460.240, 291.150 460.503, 289.500 460.918 M 465 460.892 C 457.336 461.771, 451.110 465.480, 448.013 471.013 L 445.500 475.500 445.500 526.500 L 445.500 577.500 448 581.961 C 450.756 586.879, 455.338 590.444, 460.882 591.984 C 463.083 592.595, 483.894 592.987, 514 592.985 L 563.500 592.981 568.741 589.976 C 572.769 587.666, 574.618 585.759, 576.733 581.735 L 579.486 576.500 579.460 527 L 579.434 477.500 576.755 471.712 C 574.338 466.490, 573.510 465.659, 568.288 463.212 L 562.500 460.500 516.500 460.381 C 491.200 460.315, 468.025 460.545, 465 460.892 M 637 460.867 C 629.232 462.151, 624.347 465.392, 621.325 471.266 L 618.632 476.500 618.570 526.500 L 618.508 576.500 621.504 581.987 C 623.695 585.999, 625.709 588.149, 629 589.987 L 633.500 592.500 684.677 592.808 C 734.193 593.105, 735.981 593.050, 739.772 591.117 C 744.799 588.552, 749.606 583.062, 751.022 578.267 C 751.793 575.656, 752.037 559.154, 751.817 524.500 C 751.473 470.222, 751.616 471.616, 745.845 466.367 C 739.562 460.652, 740.544 460.754, 689.038 460.426 C 662.892 460.260, 639.475 460.458, 637 460.867 M 312 526.349 L 312 553.698 321.750 554.344 C 334.158 555.166, 354.942 555.170, 361.750 554.352 L 367 553.721 367 526.361 L 367 499 339.500 499 L 312 499 312 526.349 M 485 526.500 L 485 554 512.500 554 L 540 554 540 526.500 L 540 499 512.500 499 L 485 499 485 526.500 M 658 526.500 L 658 554 685.500 554 L 713 554 713 526.500 L 713 499 685.500 499 L 658 499 658 526.500 M 501.612 683.450 C 466.663 706.817, 444.404 735.259, 432.704 771.500 C 425.622 793.436, 425.661 792.918, 425.253 868.750 L 424.886 937 512.004 937 L 599.123 937 598.736 867.250 C 598.310 790.323, 598.393 791.426, 591.389 770.384 C 579.368 734.269, 552.954 701.772, 518.480 680.683 C 515.169 678.657, 512.190 677, 511.860 677 C 511.530 677, 506.918 679.903, 501.612 683.450" stroke="none" fill="#1d428a" fill-rule="evenodd"/></svg>