<svg xmlns="http://www.w3.org/2000/svg" viewBox="272 251 1518 1518"><mask id="m" maskUnits="userSpaceOnUse" x="272" y="251" width="1518" height="1518"><rect x="272" y="251" width="1518" height="1518" fill="#000"/><path fill="#fff" d="M645.953 336.403c51.231-1.44 71.482 25.039 105.212 57.974l63.121 61.795 61.206 59.472c16.476 15.861 41.213 36.821 51.563 56.666a103.6 103.6 0 0 1 11.576 44.2c1.31 41.964-18.751 62.433-45.643 89.585l-37.785 38.178c-12.17 12.353-23.904 22.126-29.13 39.184a54.4 54.4 0 0 0 4.168 41.843c6.854 12.516 50.033 52.94 63.056 65.895l129.813 128.765 134.09 133.08c17.35 16.99 34.33 34.36 51.84 51.11 12.22 11.68 30.18 17.51 46.88 15.04 21.14-2.82 31.37-16.84 45.52-30 22.17-20.6 45.13-50.3 70.48-66.15 22.08-13.79 54.47-15.2 78.98-8.2a92.8 92.8 0 0 1 32.01 16.46c7.23 5.77 19.14 18.21 26.09 25.06l48.92 48.24 81.83 80.68c14.13 13.96 28.52 28.13 42.23 41.96 32.03 31 37.58 89.71 10.12 125.47-16.04 20.89-39.71 43.26-58.49 62.69l-77.86 81.86c-49.79 47.62-117.95 80.09-186.75 85.9a326.58 326.58 0 0 1-239.1-75.51c-17.26-14.64-37.65-35.87-53.97-52.01l-82.898-81.65-272.528-269.2-189.383-186.91-59.95-59.083c-21.743-21.547-40.22-39.121-58.201-64.165a315.34 315.34 0 0 1-57.688-156.969c-6.297-77.961 16.275-152.033 67.191-211.553 8.969-10.483 21.093-22.258 30.894-32.234l55.233-56.109 50.846-52.245c28.045-28.383 44.12-46.047 86.507-49.119"/><path fill="#000" d="M552.149 461.935c7.369 5.604 21.222 19.871 28.139 26.775a4581 4581 0 0 0 44.073 43.763l189.728 186.91c-11.602 11.593-22.519 22.414-29.561 37.528-16.984 36.451-9.1 84.702 19.581 113.157 21.878 21.705 43.811 43.354 65.662 65.084L1058.02 1121.7l81.75 81.55c12.1 12.11 25.06 25.75 37.19 36.89 30.77 28.29 80.15 34.99 117.47 16.25 16.02-8.05 26.87-19.62 39.47-31.91 30.33 28.63 61.38 60.21 91.2 89.59l172.94 170.43c-40.34 38.78-68.48 78.88-115.55 110.3a257.3 257.3 0 0 1-149.9 42.21 283.5 283.5 0 0 1-152.86-50.85c-23.17-16.12-37.46-31.31-57.34-50.93l-52.16-51.66-162.486-160.49-291.115-287.5-86.477-85.533c-17.216-16.931-37.356-35.768-53.782-53.226a266.83 266.83 0 0 1-73.734-193.325 236.5 236.5 0 0 1 55-145.302c18.736-22.301 42.414-42.931 62.404-64.309 9.959-10.65 21.48-22.004 32.109-31.95"/><path fill="#000" d="M644.315 384.275c28.429-2.504 40.402 11.718 59.227 29.473 13.314 12.556 26.221 25.476 39.305 38.245l129.217 126.555c12.447 12.392 18.364 22.862 18.831 41.458.657 26.183-25.441 46.403-43.81 64.48l-7.47-7.307c-21.186-19.952-42.703-42.132-63.495-62.625l-127.29-125.06c-20.812-20.377-42.231-42.516-63.709-61.948 19.198-19.328 32.061-39.019 59.194-43.271"/><path fill="#fff" d="M778.592 544.334c13.901-3.363 27.902 5.154 31.308 19.044s-5.069 27.918-18.949 31.366c-13.94 3.463-28.041-5.056-31.461-19.006-3.421-13.951 5.141-28.026 19.102-31.404"/><path fill="#fff" d="M702.378 465.354c13.976-1.371 26.481 8.69 28.135 22.635s-8.15 26.652-22.059 28.589a25.8 25.8 0 0 1-24.119-9.971 25.796 25.796 0 0 1 18.043-41.253"/><path fill="#000" d="M1415.99 1158.21c28.23-2.92 42.42 14.36 60.37 32.05l39.05 38.55c40.74 40.21 81.74 80.07 122.48 120.31 15.59 15.4 24.88 25.45 24.84 49-.04 23.36-17.01 36.98-32.44 52.15l-8.56-8.46-255.09-250.85c16.86-16.79 24.48-29.08 49.35-32.75"/></mask><rect x="272" y="251" width="1518" height="1518" fill="#1d428a" mask="url(#m)"/></svg>