<svg xmlns="http://www.w3.org/2000/svg" viewBox="252 194 1600 1600"><mask id="m" maskUnits="userSpaceOnUse" x="252" y="194" width="1600" height="1600"><rect x="252" y="194" width="1600" height="1600" fill="#000"/><path fill="#fff" d="M1655.74 281.429c64.25-2.76 112.32 40.429 111.27 106.098-1.69 68.936-34.66 134.557-72.29 190.743-25.68 38.342-58.17 68.288-90.38 100.652-45.44 45.655-92.48 89.809-137.83 135.444 15.61 56.5 30.24 118.025 44.64 175.163l69.4 273.841 47.79 187.76c9.68 39.19 25.58 80.91 18.42 121.16-6.74 39.43-40.31 63.33-66.18 90.71-11.93 12.63-27.46 28.33-40.89 39.59-7.47 6.25-22.68 2.47-28.47-6.19-13.67-20.43-26.61-41.73-39.68-62.73l-78.9-126.81c-79.22-126.57-160.83-254.84-238.25-382.32l-107.89 107.42c-19.51 19.54-49.143 51.09-70.051 67.11-30.704 23.53-76.061 48.14-110.637 66.86 10.417 48.93 24.315 97.44 36.489 145.99 4.905 19.56 11.767 39.75 14.166 59.75 1.376 11.47.855 23.54-2.064 34.74-2.558 9.81-6.29 18.68-12.071 27.03-6.924 10.01-64.273 67.97-72.48 72.52-5.329 2.96-9.873 3.28-15.698 1.61-4.592-1.31-8.129-3.6-11.056-7.39-6.711-8.67-11.951-18.93-17.476-28.38l-26.49-45.48-84.188-144.8-12.785-21.81c-37.902-7.73-61.592-29.59-70.9-67.32-21.952-14.38-50.024-29.81-73.109-43.11l-110.53-64.07c-19.728-11.46-40.061-22.65-59.32-34.77-17.914-11.26-10.676-29.46 2.599-40.88 28.684-24.66 51.25-62.71 88.682-74.34 22.431-6.97 42.655-2.49 64.93 2.54 60.896 14.14 123.096 25.11 183.675 40.02 14.281-27.19 38.79-69.48 56.268-93.66 13.685-18.93 45.53-48.99 63.334-67.3l123.395-126.129c-19.963-10.123-53.267-31.434-73.367-43.639a15147 15147 0 0 1-132.667-80.356L485.107 622.141c-43.602-26.18-87.279-52.199-130.849-78.465-13.989-8.433-17.198-22.746-6.468-35.682 7.736-8.398 16.365-17.088 24.785-24.817 21.901-20.103 45.707-51.127 70.982-66.086a118.04 118.04 0 0 1 70.063-15.454c16.398 1.6 57.162 13.03 74.78 17.585l139.039 36.14 504.421 130.323c47.76-50.149 98.95-98.126 145.86-148.874 69.08-74.718 172.9-148.465 278.02-155.382"/><path fill="#000" d="M1656.5 325.417c57.9-1.668 74.65 45.409 62.46 94.376-14.57 58.513-43.74 111.838-81.47 158.632-13.44 16.67-31.69 33.509-46.87 48.807a6064 6064 0 0 1-73.95 74.184l-125.56 124.209c-9.43 9.163-25.59 21.797-25.31 34.95.2 6.169 2.94 11.98 7.58 16.048a23.17 23.17 0 0 0 16.86 5.893c14.34-.903 29.16-20.901 39.14-31.658l126.24 499.922 33.17 130.94c4.33 17.14 12.93 47.13 14.68 63.03 3.08 27.98-18.72 47.9-36.73 65.24-10.95 10.53-23.77 23.29-34.49 34.99-9.14-15.87-20.67-33.53-30.42-49.28L1428.4 1478l-241.26-386.45 47.57-46.55c9.44-9.17 22.17-20.68 30.34-30.86 4.36-5.44 4.1-13.15 2.92-19.755-5.94-14.538-23.03-20.412-35.66-10.239-8.79 7.08-17.15 16.294-25.16 24.364q-17.73 17.88-35.64 35.58l-135.34 134.38c-24.83 24.66-52.086 53.1-78.348 75.71-26.858 23.12-61.927 42.34-92.625 60.09l-88.288 50.82c-21.88 12.52-75.077 47.06-96.924 49.42-10.724 1.16-21.48-1.07-29.922-8.03-8.514-7.02-13.618-16.72-14.301-27.74-.429-6.91.813-13.45 3.473-19.83 5.416-12.98 12.982-25.34 19.838-37.62l34.654-61.39 45.125-79.9c18-31.73 35.751-63.73 60.93-90.48 15.631-16.6 31.814-32.63 47.869-48.83l83.956-85.325L1203.66 678.74l168.21-170.484 53.9-54.74c17.36-17.527 32.66-33.742 52.51-48.599 48.7-36.473 116.64-74.529 178.22-79.5"/><path fill="#fff" d="M1315.96 904.207c28.98-3.181 39.15 24.436 19.02 41.394-7.99 6.731-7.41 9.587-17.96 13.63-18.61 2.298-32.81-13.452-26.22-31.226 2.62-7.052 18.19-20.602 25.16-23.798"/><path fill="#000" d="M497.524 446.399c16.43-1.497 90.448 19.774 110.269 24.865l146.71 37.816a33682 33682 0 0 0 440.857 113.465c-52.64 55.479-109.97 111.534-163.84 166.346a4217 4217 0 0 0-68.047 69.73c-105.871-62.226-212.739-129.203-318.269-192.758L502.65 579.736c-32.606-19.554-68.988-40.363-100.475-61.185a3199 3199 0 0 0 34.019-34.41c20.443-20.778 31.032-34.706 61.33-37.742"/><path fill="#000" d="M457.952 1177.19c17.606-1.2 56.27 9.4 75.993 13.64 43.622 9.3 87.182 18.88 130.677 28.76l-65.957 115.98-3.571 6.18c-48.258-30.26-100.032-57.16-148.771-86.8-15.4-9.36-32.303-19.31-48.235-27.62 16.342-16.24 37.288-44.64 59.864-50.14"/><path fill="#000" d="M823.805 1389.97c3.135 5.32 46.471 183.14 46.498 190.74.1 28.37-27.39 47.31-45.299 66.04a1955 1955 0 0 1-23.657-40.22c-29.076-48.44-61.995-104.12-88.958-153.38 12.952-5.96 32.376-17.71 45.165-25a3317 3317 0 0 0 66.251-38.18"/></mask><rect x="252" y="194" width="1600" height="1600" fill="#1d428a" mask="url(#m)"/></svg>